<svg
   width="32"
   height="32"
   viewBox="0 0 32 32"
   version="1.1"
   id="svg5"
   xmlns="http://www.w3.org/2000/svg"
   xmlns:svg="http://www.w3.org/2000/svg">
  <defs
     id="defs2" />
  <g
     id="layer1">
    <g
       id="g1123"
       transform="matrix(0.24604821,0,0,0.33823727,-9.0873219,-29.780077)">
      <g
         id="Layer_1"
         transform="matrix(0.20061654,-0.17250316,0.17250316,0.20061654,25.014472,147.85891)">
        <path
           d="m 393.481,222.291 c 40.734,-3.854 80.275,-4.493 115.205,7.282 0.668,-4.46 1.337,-8.918 2.006,-13.377 -6.076,-2.899 -13.823,-5.463 -20.734,-5.685 C 480.594,198.248 481.764,181.806 472.4,169.544 443.761,67.319 375.337,8.298 291.569,3.317 202.743,-1.965 97.745,49.355 43.838,23.569 94.622,176.956 250.563,258.985 464.374,177.57 c 6.243,8.695 5.964,22.239 12.207,30.934 -24.332,-0.965 -52.679,-0.594 -77.011,1.451 -2.029,4.112 -4.058,8.224 -6.089,12.336"
           fill="#5eb245"
           id="path82" />
        <path
           d="M 464.346,169.348 C 440.146,85.36 382.234,16.415 291.112,10.997 216.923,6.585 117.929,49.827 56.461,35.937 125.497,213.335 326.195,12.227 464.346,169.348"
           fill="#87c047"
           id="path84" />
        <path
           d="m 134.701,173.692 c 22.263,-39.896 69.159,-67.387 123.412,-67.387 51.589,0 96.521,24.858 119.95,61.602 8.558,13.422 17.105,24.079 28.345,35.349 5.68,5.698 9.234,13.817 9.234,22.828 0,9.011 -3.554,17.13 -9.234,22.827 -11.24,11.272 -19.787,21.928 -28.345,35.35 -23.429,36.743 -68.361,61.601 -119.95,61.601 -54.253,0 -101.149,-27.489 -123.412,-67.386 -7.581,-13.586 -17.229,-23.481 -30.622,-31.399 -8.324,-4.921 -13.657,-12.496 -13.657,-20.993 0,-8.498 5.333,-16.074 13.657,-20.993 13.394,-7.918 23.04,-17.813 30.622,-31.399"
           fill="#eccd26"
           id="path86" />
        <path
           d="m 207.058,337.29 c -31.667,-11.09 -57.499,-32.187 -72.357,-58.814 -7.581,-13.586 -17.229,-23.481 -30.622,-31.399 -0.182,-0.107 -0.362,-0.216 -0.54,-0.326 h 132.106 c 5.756,36.488 -5.803,69.074 -28.587,90.539"
           fill="#dabf2d"
           id="path88" />
        <path
           d="m 134.701,173.692 c 22.263,-39.896 69.159,-67.387 123.412,-67.387 51.589,0 96.521,24.858 119.95,61.602 7.482,11.734 14.954,21.352 24.225,31.118 -6.174,43.996 -67.466,78.547 -142.177,78.547 -76.779,0 -139.386,-36.488 -142.563,-82.219 6.811,-6.047 12.39,-13.124 17.153,-21.661"
           fill="#fbda20"
           id="path90" />
        <path
           d="m 236.529,276.4 c -34.341,-3.438 -64.53,-14.253 -85.925,-29.649 h 85.041 c 1.616,10.243 1.862,20.179 0.884,29.649"
           fill="#eccd26"
           id="path92" />
        <path
           d="m 222.743,118.221 c 30.459,-6.979 55.152,2.222 55.152,20.55 0,18.329 -24.693,38.844 -55.152,45.823 -30.46,6.979 -55.152,-2.221 -55.152,-20.551 0,-18.328 24.692,-38.844 55.152,-45.822"
           fill="#feef85"
           id="path94" />
      </g>
    </g>
  </g>
</svg>
